<?xml version="1.0" standalone="no"?>
<!DOCTYPE svg PUBLIC "-//W3C//DTD SVG 20010904//EN"
 "http://www.w3.org/TR/2001/REC-SVG-20010904/DTD/svg10.dtd">
<svg version="1.0" xmlns="http://www.w3.org/2000/svg"
 width="762.000000pt" height="762.000000pt" viewBox="0 0 762.000000 762.000000"
 preserveAspectRatio="xMidYMid meet">
<metadata>
Created by potrace 1.14, written by Peter Selinger 2001-2017
</metadata>
<g transform="translate(0.000000,762.000000) scale(0.100000,-0.100000)"
fill="#000000" stroke="none">
<path d="M2909 7603 c-1 -5 -2 -20 -3 -35 -4 -36 -35 -118 -46 -118 -5 0 -11
-8 -14 -17 -4 -10 -19 -32 -34 -49 -47 -54 -106 -126 -121 -148 -8 -12 -17
-23 -20 -26 -3 -3 -16 -23 -29 -45 -120 -209 -133 -405 -40 -615 15 -35 29
-34 103 1 135 64 220 130 290 224 16 22 34 43 40 47 5 4 6 8 1 8 -5 0 -1 9 9
20 10 11 15 20 12 20 -3 0 1 17 10 38 23 55 28 88 27 187 -2 127 -26 204 -131
423 -41 87 -52 102 -54 85z"/>
<path d="M3389 7192 c-117 -173 -152 -241 -175 -340 -22 -95 -18 -227 9 -277
6 -11 10 -22 9 -25 -3 -13 12 -57 26 -72 8 -10 12 -18 8 -18 -9 0 22 -49 67
-104 l24 -30 41 42 c51 52 151 193 179 252 36 75 56 161 56 235 -1 92 -15 147
-73 280 -27 61 -50 145 -50 182 0 18 -3 33 -7 33 -5 0 -56 -71 -114 -158z"/>
<path d="M2072 6917 c-57 -175 -76 -301 -76 -507 0 -148 4 -196 30 -310 15
-65 57 -164 81 -188 7 -7 13 -16 13 -20 0 -11 82 -96 121 -125 l36 -27 32 92
c18 51 38 107 46 123 14 31 55 149 60 175 2 8 8 27 14 43 6 15 9 27 7 27 -2 0
1 21 8 48 12 46 13 166 2 247 -15 121 -95 297 -176 387 -50 56 -139 128 -157
128 -6 0 -24 -42 -41 -93z"/>
<path d="M3905 6863 c-27 -37 -53 -72 -58 -78 -74 -92 -233 -338 -256 -395
-28 -73 -33 -93 -36 -170 -5 -130 47 -239 167 -348 l24 -22 35 31 c19 16 63
56 99 87 35 31 72 64 81 73 21 21 59 121 67 179 8 58 7 273 -2 325 -4 22 -7
47 -7 55 -1 27 -39 233 -52 283 l-12 48 -50 -68z"/>
<path d="M4520 6824 c0 -5 -17 -27 -36 -49 -48 -54 -70 -79 -129 -150 -27 -33
-52 -62 -56 -65 -3 -3 -18 -23 -34 -45 -17 -22 -33 -42 -36 -45 -16 -12 -123
-169 -154 -225 -52 -91 -66 -141 -69 -234 -4 -104 12 -176 59 -269 33 -64 40
-72 65 -72 66 0 228 113 279 196 45 73 89 209 106 332 19 135 23 210 24 402 1
168 -1 216 -12 226 -4 4 -7 3 -7 -2z"/>
<path d="M2696 6463 c-101 -64 -236 -245 -270 -360 -21 -74 -15 -200 14 -283
22 -63 49 -120 61 -130 3 -3 11 -15 18 -27 17 -33 41 -28 107 20 67 49 121
112 159 182 14 26 29 53 35 60 5 6 11 20 13 31 2 10 9 39 17 64 14 48 20 238
9 255 -4 6 -9 24 -12 40 -9 46 -22 87 -46 133 -25 49 -46 52 -105 15z"/>
<path d="M3049 6448 c0 -7 -2 -22 -4 -33 -26 -131 -26 -418 -1 -534 37 -168
148 -338 263 -403 l53 -30 -31 -55 c-52 -91 -76 -183 -77 -301 -1 -102 -1
-103 25 -113 22 -8 80 -7 123 4 57 14 154 71 201 118 49 49 110 175 125 259 3
14 7 32 10 40 3 8 8 33 10 55 3 22 8 51 10 65 10 52 13 250 4 250 -15 0 -164
-91 -214 -130 -10 -8 -34 -30 -53 -47 -37 -35 -59 -43 -49 -18 16 44 35 136
37 185 6 155 -73 353 -203 506 -53 63 -162 164 -177 164 -5 0 -14 7 -21 15
-15 18 -30 19 -31 3z"/>
<path d="M1652 6352 c-13 -32 -29 -93 -37 -141 -3 -19 -8 -37 -10 -41 -2 -4
-7 -34 -10 -66 -4 -32 -8 -70 -11 -84 -3 -14 -7 -84 -10 -157 -6 -149 7 -220
54 -283 32 -43 83 -89 100 -90 6 0 12 -4 12 -8 0 -10 108 -47 163 -57 29 -4
46 -2 65 11 36 23 52 40 52 53 0 6 4 11 8 11 16 0 44 101 46 167 3 89 -16 170
-62 263 -38 76 -99 172 -114 178 -4 2 -8 10 -8 17 0 7 -3 15 -7 17 -5 2 -24
23 -44 48 -20 25 -68 77 -107 117 l-70 72 -10 -27z"/>
<path d="M5022 6244 c-96 -66 -221 -166 -279 -223 -49 -47 -124 -150 -144
-196 -5 -11 -13 -27 -18 -35 -14 -23 -41 -92 -47 -120 -18 -80 -21 -107 -19
-172 3 -101 21 -158 51 -158 84 0 260 149 372 314 33 50 60 92 59 95 -1 4 8
31 20 61 28 73 61 230 68 321 4 41 8 91 10 112 1 20 0 39 -4 41 -3 2 -34 -16
-69 -40z"/>
<path d="M2871 5909 c-53 -50 -166 -218 -213 -319 -61 -129 -82 -221 -81 -346
1 -107 28 -196 93 -301 52 -85 156 -203 178 -203 7 0 11 4 8 9 -3 5 -8 33 -11
63 -8 78 19 132 118 243 22 25 65 112 75 151 8 36 8 235 0 289 -18 112 -80
310 -125 399 l-19 37 -23 -22z"/>
<path d="M2312 5754 c-60 -201 -64 -310 -18 -444 29 -85 92 -194 141 -242 25
-26 53 -39 41 -20 -2 4 -7 34 -11 67 -3 33 -8 71 -10 85 -2 14 -6 48 -10 75
-12 98 -26 184 -39 240 -2 11 -20 70 -39 130 -19 61 -36 119 -39 130 -2 14 -7
9 -16 -21z"/>
<path d="M5190 5601 c-189 -87 -220 -103 -301 -162 -106 -77 -204 -242 -244
-409 -18 -75 -24 -212 -12 -262 7 -25 11 -27 47 -23 42 4 135 40 161 62 8 7
19 13 22 13 14 0 136 114 186 175 52 62 132 189 170 267 62 131 141 391 123
402 -4 2 -72 -26 -152 -63z"/>
<path d="M1321 5579 c-21 -104 -26 -186 -26 -394 1 -231 12 -322 51 -401 49
-100 185 -218 334 -291 86 -42 142 -64 147 -59 27 26 19 282 -13 426 -9 41
-19 86 -22 100 -11 51 -91 189 -206 355 -25 35 -193 248 -229 289 l-25 29 -11
-54z"/>
<path d="M4056 5594 c-44 -47 -79 -120 -123 -257 -20 -62 -38 -119 -41 -127
-6 -18 -5 -13 -20 -75 -6 -27 -14 -62 -16 -78 -3 -15 -8 -37 -11 -50 -16 -58
209 213 240 288 34 84 31 75 48 150 13 59 14 116 3 161 -9 35 -40 30 -80 -12z"/>
<path d="M4316 5453 c-42 -44 -162 -203 -187 -248 -54 -97 -69 -129 -88 -187
-28 -86 -31 -109 -31 -218 0 -100 2 -121 25 -211 24 -95 102 -223 151 -250 20
-10 30 -8 72 20 95 61 172 161 211 274 18 51 23 72 37 157 6 35 5 220 -1 250
-3 14 -8 41 -11 60 -17 104 -107 336 -143 373 -5 5 -21 -4 -35 -20z"/>
<path d="M1967 5388 c-17 -46 -45 -140 -52 -179 -3 -13 -7 -35 -10 -49 -2 -14
-9 -47 -14 -73 -12 -65 -6 -199 13 -268 24 -93 96 -235 148 -293 25 -28 28
-29 60 -16 114 45 179 193 173 398 -4 136 -35 230 -118 352 -41 59 -155 170
-176 170 -4 0 -15 -19 -24 -42z"/>
<path d="M3602 5006 c-80 -31 -154 -103 -196 -189 -44 -89 -48 -110 -50 -222
0 -90 3 -114 24 -183 25 -81 90 -212 105 -212 14 0 131 92 192 152 70 67 88
99 103 183 7 39 14 79 17 90 8 41 3 193 -7 239 -12 53 -51 136 -73 154 -19 16
-51 12 -115 -12z"/>
<path d="M3065 4944 c-121 -206 -186 -425 -186 -624 1 -141 58 -277 163 -383
l28 -28 -31 -38 c-35 -44 -58 -112 -55 -162 2 -20 16 -59 31 -88 29 -53 99
-126 114 -117 11 7 6 237 -7 276 -26 78 -24 97 12 147 73 104 139 237 153 311
10 47 10 243 0 302 -9 58 -40 167 -62 216 -9 22 -22 50 -28 64 -21 49 -91 170
-98 170 -4 0 -19 -21 -34 -46z"/>
<path d="M679 4933 c-5 -156 3 -344 16 -413 3 -13 7 -40 10 -60 3 -20 8 -47
10 -60 3 -14 7 -36 10 -50 28 -146 55 -204 125 -267 62 -57 193 -116 284 -129
16 -2 43 -8 60 -12 17 -4 65 -9 107 -11 l77 -3 5 39 c9 70 -2 207 -22 288 -28
109 -107 266 -166 331 -5 6 -19 23 -30 39 -35 49 -188 200 -246 242 -67 49
-166 100 -208 108 -31 5 -31 5 -32 -42z"/>
<path d="M2475 4900 c-3 -5 -8 -19 -10 -30 -8 -41 -88 -194 -115 -220 -24 -22
-107 -144 -123 -180 -28 -63 -36 -101 -43 -206 -6 -88 -5 -94 22 -145 31 -59
256 -293 275 -287 13 4 27 41 83 223 106 343 118 459 67 626 -33 105 -136 251
-156 219z"/>
<path d="M5015 4772 c-98 -38 -236 -147 -361 -284 -60 -65 -118 -176 -130
-247 -3 -14 -7 -33 -9 -41 -7 -22 -7 -120 -1 -150 3 -14 16 -45 29 -70 29 -57
51 -61 133 -20 76 37 148 113 197 209 27 52 122 307 132 356 1 5 7 30 14 55 7
25 15 55 17 67 2 12 9 34 14 48 5 14 8 25 5 25 -2 0 0 13 5 30 11 38 4 41 -45
22z"/>
<path d="M5515 4674 c-98 -16 -193 -52 -277 -106 -79 -50 -101 -70 -149 -134
-49 -66 -73 -141 -73 -229 l-1 -70 45 -23 c93 -48 235 -8 400 112 66 47 100
82 100 101 0 7 3 15 8 17 13 6 75 141 97 213 18 58 23 111 12 121 -10 9 -97 8
-162 -2z"/>
<path d="M3884 4516 c-64 -69 -214 -344 -229 -421 -5 -22 -10 -47 -12 -55 -2
-8 -4 -58 -5 -110 -2 -129 27 -256 80 -357 21 -41 24 -43 60 -38 20 3 55 18
78 34 l41 28 -43 -126 c-24 -69 -45 -137 -48 -151 -3 -14 -8 -38 -11 -54 -3
-16 -10 -37 -15 -46 -5 -10 -7 -20 -5 -22 3 -3 -2 -24 -10 -48 -8 -24 -13 -45
-11 -47 5 -6 86 115 86 128 0 5 5 9 10 9 6 0 10 4 10 9 0 6 16 36 35 68 53 89
74 176 79 328 1 44 7 89 13 100 6 11 25 61 43 110 27 75 33 108 36 195 2 58
-1 128 -7 155 -6 28 -12 61 -15 74 -13 65 -108 231 -139 244 -6 3 -15 -1 -21
-7z"/>
<path d="M1470 4429 c16 -23 38 -65 49 -94 19 -51 24 -82 36 -240 13 -178 23
-227 68 -345 53 -141 122 -190 334 -238 l81 -19 12 26 c16 34 29 78 36 121 3
19 9 54 14 77 9 49 6 206 -4 243 -23 83 -33 111 -60 160 -38 71 -115 151 -185
193 -99 59 -308 142 -383 153 l-28 4 30 -41z"/>
<path d="M4284 4163 c-12 -57 -47 -179 -57 -203 -6 -14 -11 -27 -12 -30 -11
-33 -35 -78 -79 -150 -30 -48 -58 -102 -63 -121 -13 -47 -16 -214 -5 -272 9
-46 8 -48 -18 -62 -61 -32 -128 -95 -153 -144 -45 -92 -24 -153 63 -182 19 -6
40 -14 45 -18 36 -21 177 -16 260 9 167 52 397 214 460 324 36 64 39 92 12
100 -83 25 -255 25 -422 0 l-40 -6 31 34 c65 70 74 83 103 142 77 160 87 342
25 466 -19 38 -116 140 -133 140 -6 0 -13 -12 -17 -27z"/>
<path d="M5300 4038 c-63 -10 -122 -18 -130 -19 -72 -6 -224 -46 -274 -71
-112 -56 -232 -155 -283 -234 -28 -42 -63 -114 -63 -128 0 -34 111 -69 225
-71 79 -2 155 11 248 41 59 19 213 137 318 243 80 80 189 223 189 248 0 19
-75 16 -230 -9z"/>
<path d="M3313 3964 c-8 -15 -30 -82 -48 -144 -1 -3 -7 -23 -13 -46 -38 -131
-52 -260 -39 -359 14 -111 104 -302 197 -419 31 -39 89 -96 97 -96 19 0 94 73
118 114 56 96 70 164 70 341 0 117 -3 135 -24 180 -48 100 -152 238 -283 379
-59 64 -66 68 -75 50z"/>
<path d="M2593 3830 c-153 -69 -303 -232 -337 -365 -4 -17 -10 -39 -13 -50
-12 -45 -10 -215 2 -270 19 -80 58 -156 110 -210 40 -42 69 -52 63 -22 -4 22
13 91 32 127 10 19 52 69 92 110 116 117 189 271 182 382 -7 96 -64 318 -82
318 -4 0 -26 -9 -49 -20z"/>
<path d="M1047 3794 c-1 -2 -25 -6 -52 -9 -67 -9 -217 -45 -231 -56 -6 -5 -13
-7 -16 -4 -3 3 -10 -1 -17 -9 -9 -11 -3 -29 27 -89 64 -123 156 -229 294 -340
149 -119 387 -115 635 12 l41 20 -14 41 c-36 105 -99 204 -179 284 -79 78
-162 121 -275 143 -26 5 -209 11 -213 7z"/>
<path d="M2863 3564 c-48 -76 -118 -228 -116 -254 0 -3 -4 -16 -9 -30 -11 -28
-20 -92 -21 -135 0 -56 13 -100 53 -180 45 -91 76 -131 174 -227 82 -80 82
-80 139 35 52 106 70 185 68 302 -1 108 -31 238 -64 280 -20 26 -164 216 -178
236 -15 22 -15 22 -46 -27z"/>
<path d="M1799 3423 c-5 -87 11 -148 51 -198 17 -21 30 -34 30 -30 0 5 8 1 18
-7 22 -20 111 -50 129 -44 7 3 13 2 13 -3 0 -4 11 -6 25 -3 14 2 25 8 25 13 0
23 -137 182 -203 237 -42 34 -78 62 -81 62 -3 0 -7 -12 -7 -27z"/>
<path d="M1827 3025 c-67 -18 -146 -58 -218 -111 -68 -51 -149 -123 -149 -134
0 -3 37 -7 83 -8 50 0 121 -10 182 -26 77 -19 122 -24 201 -23 105 2 111 -1
67 -36 -27 -22 -143 -174 -143 -189 0 -6 7 -7 18 -3 49 21 128 14 242 -21 151
-46 151 -47 251 -46 93 0 127 11 178 61 32 31 101 128 101 142 0 42 69 -57
145 -206 48 -94 90 -209 101 -272 2 -15 7 -34 9 -42 24 -67 24 -513 0 -711 -5
-45 -14 -131 -21 -195 -3 -27 -8 -52 -10 -55 -3 -3 -38 -6 -77 -7 -40 -1 -181
-4 -313 -8 -292 -7 -356 -9 -854 -30 -99 -4 -254 -12 -400 -20 -259 -14 -329
-17 -367 -19 -226 -9 367 -12 2927 -12 1639 0 2980 3 2980 7 0 3 -28 7 -62 9
-35 1 -85 3 -113 5 -44 2 -247 10 -515 21 -47 1 -159 5 -250 8 -91 3 -226 8
-300 11 -768 30 -1268 38 -2208 34 -128 -1 -235 0 -237 2 -2 2 1 27 6 54 5 28
12 64 15 80 2 17 7 37 9 45 2 8 7 33 10 55 4 22 8 49 10 60 2 11 11 54 19 95
9 41 18 90 21 109 3 19 8 37 10 41 3 4 7 25 11 46 16 105 93 268 211 447 36
56 69 104 72 107 11 9 91 119 91 124 0 3 -17 15 -39 25 l-39 20 -53 -57 c-73
-79 -119 -131 -149 -171 -14 -18 -30 -38 -35 -44 -6 -7 -42 -53 -80 -104 l-69
-92 -12 37 c-7 20 -23 73 -37 117 -92 297 -182 442 -445 723 l-32 35 -36 -19
c-45 -24 -49 -31 -30 -49 8 -9 32 -37 53 -63 21 -26 46 -56 55 -66 29 -33 13
-30 -46 8 -31 20 -60 36 -65 36 -4 0 -22 7 -39 15 -75 38 -229 51 -297 25 -15
-6 -29 -9 -31 -7 -2 2 5 21 16 42 11 21 23 55 26 74 6 30 3 38 -22 59 -80 66
-221 95 -327 67z"/>
<path d="M3263 2970 c-102 -94 -143 -275 -119 -518 4 -40 9 -78 11 -85 2 -6 7
-25 9 -41 3 -16 7 -30 9 -32 1 -2 34 48 71 111 88 148 108 218 102 365 -3 104
-29 210 -51 217 -6 2 -20 -6 -32 -17z"/>
<path d="M3917 2954 c-1 -1 -27 -4 -58 -7 -194 -21 -360 -146 -373 -282 -4
-37 -2 -38 89 -51 59 -9 206 -8 254 1 122 23 277 126 347 229 19 28 34 54 34
57 0 13 -72 34 -148 45 -40 5 -141 11 -145 8z"/>
<path d="M668 2536 c-3 -17 -2 -1205 1 -1242 1 -14 476 -10 512 4 15 6 29 9
31 6 10 -9 130 36 171 65 85 59 119 116 133 226 7 51 7 52 0 105 -15 115 -85
195 -202 232 l-72 22 47 22 c87 40 151 114 169 193 10 49 2 143 -17 186 -39
88 -142 160 -260 180 -14 2 -42 7 -61 11 -19 3 -128 7 -242 8 -201 2 -207 2
-210 -18z m452 -130 c102 -17 161 -80 165 -176 4 -87 -41 -153 -127 -190 -40
-17 -73 -22 -174 -24 -68 -1 -127 0 -132 3 -9 6 -14 337 -7 377 4 20 10 21
117 19 62 -1 133 -5 158 -9z m-15 -530 c151 -13 227 -90 228 -231 0 -79 -15
-118 -63 -159 -50 -42 -127 -58 -282 -60 -133 -2 -139 -2 -142 18 -7 34 -2
420 6 431 6 10 141 11 253 1z"/>
<path d="M4018 2496 c-1 -2 -25 -6 -53 -10 -99 -11 -90 0 -90 -117 1 -57 -3
-106 -7 -109 -4 -3 -41 -5 -82 -4 -63 0 -76 -2 -77 -15 -4 -44 -5 -97 -2 -107
3 -7 33 -10 83 -9 44 1 81 -1 81 -4 1 -3 2 -150 4 -326 1 -203 6 -335 13 -360
20 -70 72 -127 140 -155 37 -14 147 -18 202 -6 37 8 120 46 120 55 0 3 -12 30
-27 59 -19 36 -33 51 -43 48 -8 -3 -33 -11 -54 -19 -48 -18 -121 -14 -143 8
-34 34 -38 77 -38 390 l0 310 102 0 c56 0 104 3 108 6 3 4 9 33 11 66 l6 59
-114 0 -113 -1 0 117 c1 82 -3 119 -11 122 -7 3 -14 3 -16 2z"/>
<path d="M1950 2265 c-82 -15 -177 -43 -184 -54 -6 -9 21 -100 33 -113 4 -4
28 -1 54 7 62 18 117 27 197 30 151 5 209 -48 213 -196 l2 -63 -130 -2 c-185
-2 -295 -35 -370 -110 -94 -94 -103 -281 -19 -391 57 -75 150 -112 273 -108
62 2 84 8 145 39 41 21 81 51 96 70 l24 33 17 -37 c17 -38 56 -71 105 -91 57
-22 65 -20 80 17 27 64 28 91 6 96 -11 3 -28 18 -38 34 -17 25 -19 53 -20 295
-1 147 -5 289 -9 315 -14 99 -73 175 -164 213 -65 27 -208 35 -311 16z m311
-505 c0 -3 2 -52 3 -109 2 -97 0 -107 -25 -146 -52 -82 -142 -124 -235 -111
-106 14 -154 103 -128 235 13 62 89 116 183 130 53 7 201 8 202 1z"/>
<path d="M4853 2255 c-58 -27 -103 -73 -137 -140 -24 -48 -26 -49 -27 -20 -1
47 -8 118 -14 140 -4 18 -12 21 -75 21 l-70 -1 2 -485 3 -485 80 0 80 0 5 300
c6 313 7 322 55 414 22 44 71 88 111 101 19 7 61 10 94 8 l59 -4 7 41 c3 22 8
51 11 65 2 14 6 33 9 43 6 18 6 18 -88 23 -42 1 -69 -4 -105 -21z"/>
<path d="M5454 2265 c-109 -33 -188 -102 -239 -210 -47 -100 -59 -163 -59
-300 0 -207 61 -344 189 -428 145 -95 406 -78 549 37 l28 21 -38 52 -38 51
-36 -24 c-57 -39 -148 -63 -226 -59 -134 6 -207 78 -239 233 -8 36 -13 68 -11
70 2 2 143 4 313 5 l308 2 -1 85 c-3 182 -38 285 -126 374 -69 68 -141 97
-253 100 -44 2 -98 -3 -121 -9z m167 -128 c90 -17 153 -108 165 -238 4 -45 2
-59 -8 -60 -19 -1 -366 -1 -411 0 -37 1 -38 2 -33 29 3 15 8 42 11 61 3 19 10
42 16 52 5 11 7 19 5 19 -12 0 37 75 61 94 56 46 114 58 194 43z"/>
<path d="M6485 2268 c-16 -5 -39 -11 -50 -13 -26 -6 -116 -69 -143 -100 -58
-66 -105 -180 -118 -285 -41 -318 89 -554 328 -598 113 -22 273 7 360 64 21
13 42 24 47 24 5 0 12 7 15 16 6 17 -50 103 -67 104 -5 0 -21 -8 -35 -19 -85
-58 -248 -75 -329 -33 -75 39 -124 122 -140 240 -6 41 -5 42 23 43 16 0 155 1
309 2 l280 2 -1 110 c-1 225 -83 368 -246 429 -54 20 -188 28 -233 14z m202
-151 c35 -19 55 -41 81 -92 24 -50 43 -167 28 -182 -3 -4 -349 -7 -430 -4 -17
1 -18 7 -12 54 16 140 78 225 181 247 38 8 114 -4 152 -23z"/>
<path d="M6770 1060 c0 -5 5 -10 10 -10 6 0 10 5 10 10 0 6 -4 10 -10 10 -5 0
-10 -4 -10 -10z"/>
<path d="M6846 1062 c-3 -5 1 -9 9 -9 8 0 12 4 9 9 -3 4 -7 8 -9 8 -2 0 -6 -4
-9 -8z"/>
<path d="M952 889 c-126 -23 -240 -148 -269 -294 -14 -72 -8 -275 10 -334 52
-167 169 -259 329 -259 61 0 169 31 176 49 2 5 8 9 14 9 5 0 16 7 25 15 13 13
13 18 1 33 -22 28 -32 32 -48 17 -32 -29 -112 -55 -168 -55 -64 0 -142 32
-179 72 -61 68 -86 149 -88 297 -4 195 44 307 158 368 46 25 180 24 227 -1 19
-10 38 -23 41 -29 10 -14 36 -2 49 22 9 18 6 24 -27 44 -72 45 -162 62 -251
46z"/>
<path d="M4175 882 c-39 -5 -49 -15 -41 -45 6 -24 7 -24 128 -23 l123 0 3
-401 2 -401 38 2 37 2 1 384 c1 212 2 392 3 400 1 13 21 15 125 14 l124 -1 6
30 c3 17 4 32 2 34 -5 5 -510 9 -551 5z"/>
<path d="M5375 882 l-50 -3 2 -417 c0 -229 2 -425 2 -434 1 -12 9 -16 34 -15
17 1 34 7 37 14 3 7 5 93 4 193 l-1 180 24 1 c12 0 43 1 68 1 25 0 53 -1 64
-1 12 -1 39 -37 85 -116 36 -63 66 -119 66 -123 0 -4 5 -13 12 -20 7 -7 27
-38 44 -70 30 -54 34 -57 73 -59 23 -1 41 3 41 9 0 6 -20 44 -45 85 -25 40
-45 78 -45 83 0 6 -3 10 -7 10 -5 0 -19 23 -32 50 -14 28 -29 50 -33 50 -4 0
-8 6 -8 13 0 7 -11 29 -25 49 -14 20 -25 41 -25 45 0 4 23 18 50 31 89 41 131
102 135 197 5 141 -83 228 -243 241 -107 8 -169 9 -227 6z m295 -84 c63 -27
102 -94 94 -158 -9 -67 -16 -89 -32 -106 -46 -52 -110 -70 -242 -69 l-85 0 0
178 0 178 115 -4 c71 -3 129 -10 150 -19z"/>
<path d="M6537 882 c-9 -2 -17 -9 -18 -15 -1 -15 -1 -840 0 -847 1 -3 101 -5
224 -5 l222 0 3 32 3 31 -181 0 c-99 -1 -184 2 -188 6 -4 4 -7 84 -7 177 l0
169 50 1 c27 0 96 0 152 0 106 0 118 4 103 44 -7 20 -16 21 -154 20 -91 0
-147 3 -149 10 -2 5 -3 78 -3 160 l1 150 173 1 c95 1 175 4 178 7 12 12 12 49
-1 53 -15 6 -381 11 -408 6z"/>
<path d="M1868 868 c-3 -11 -2 -811 1 -843 1 -7 78 -10 224 -10 l222 0 0 30 0
30 -183 0 c-175 0 -183 1 -187 20 -2 11 -3 91 -3 177 l1 158 31 1 c17 0 86 0
154 0 l122 -1 0 33 0 33 -154 -1 -153 0 0 161 1 162 173 0 c96 0 175 1 177 3
2 2 6 16 10 32 l6 27 -219 0 c-166 0 -220 -3 -223 -12z"/>
<path d="M2959 838 c-3 -245 0 -809 5 -816 7 -12 55 -12 62 0 7 11 6 646 -1
722 -3 27 -3 47 -1 45 4 -5 68 -127 194 -369 50 -96 118 -227 151 -290 l60
-115 50 -1 51 -1 2 434 3 433 -37 0 c-23 0 -38 -5 -39 -12 -2 -36 2 -651 5
-700 1 -32 2 -58 0 -58 -1 0 -19 33 -39 73 -21 39 -50 95 -65 122 -30 56 -130
245 -231 440 l-68 130 -50 3 -51 3 -1 -43z"/>
</g>
</svg>
