<svg xmlns="http://www.w3.org/2000/svg" viewBox="0 0 315.31 380.91"><defs><style>.fad6f61a-edcf-43be-b7b2-47387a6c3b83{fill:#282828;}.acf767ce-12e4-495f-abb6-4a043d942381{fill:#a4cb76;}.fb4e30bf-a11f-4ef2-8bde-c44a788f32b9{fill:#d5df7c;}.a603fc39-1bb8-4b1b-9d31-96fe32e76d84{fill:#5ab031;}.b6e8f5d3-06c8-4e8a-a8f8-d4f039a4c3c2{fill:#b5cd32;}.a2a57053-cb4d-486a-a9e4-15cfbe26c195{fill:#686868;}</style></defs><g id="b3886307-6942-4962-b66d-5653587e0817" data-name="Layer 1"><path class="fad6f61a-edcf-43be-b7b2-47387a6c3b83" d="M29.09,340.17l-2,2.53c-2.91-2.27-5.31-3.29-8.86-3.29-7.52,0-13.79,5.32-13.79,19.11,0,13.16,6,19,13.6,19,4.5,0,7-1.64,9.56-3.67l2,2.53a16.19,16.19,0,0,1-11.7,4.49c-10,0-17.46-7.78-17.46-22.39,0-14.81,7.91-22.33,17.52-22.33A15.73,15.73,0,0,1,29.09,340.17Z"/><path class="fad6f61a-edcf-43be-b7b2-47387a6c3b83" d="M81.85,340H64.08v16.14H79.45v3.16H64.08v17.71H82.74v3.17H60.28V336.88h22Z"/><path class="fad6f61a-edcf-43be-b7b2-47387a6c3b83" d="M143.41,380.22h-5L118,341.06c.19,3,.51,7.15.51,14.93v24.23h-3.61V336.88h4.87L140.31,376c-.12-1.83-.5-7.21-.5-12.84V336.88h3.6Z"/><path class="fad6f61a-edcf-43be-b7b2-47387a6c3b83" d="M202.88,340.23H190.17v40h-3.73v-40H173.59v-3.35h29.74Z"/><path class="fad6f61a-edcf-43be-b7b2-47387a6c3b83" d="M245.66,360.79H237v19.43h-3.8V336.88H243.7c10.43,0,15.43,4.11,15.43,11.77,0,6.45-3.54,9.87-9.68,11.45l11.9,20.12h-4.56Zm-1.46-3.09c6.9,0,10.88-2.73,10.88-9.05,0-5.76-3.22-8.67-11.51-8.67H237V357.7Z"/><path class="fad6f61a-edcf-43be-b7b2-47387a6c3b83" d="M314.3,340H296.53v16.14H311.9v3.16H296.53v17.71h18.66v3.17H292.73V336.88h22Z"/><path class="fad6f61a-edcf-43be-b7b2-47387a6c3b83" d="M43,298.63c0,13.44-10.41,18.05-25.15,18.05H.38V253.22h15c15.65,0,24.86,5,24.86,16,0,7.83-5.71,12.62-11.88,13.9C35.75,284.45,43,287.85,43,298.63Zm-33.9-38.5v20h9.58c7.09,0,12.62-3.5,12.62-10.23,0-7.83-5.62-9.76-15-9.76Zm24.69,38.5c0-8.94-6.64-11.79-14.28-11.79H9.13v22.84h8.75C27.09,309.68,33.82,307.84,33.82,298.63Z"/><path class="fad6f61a-edcf-43be-b7b2-47387a6c3b83" d="M92.66,311.89l-1.93,5.9c-4.88-.56-8-2.49-9.49-7.28-3.4,5.06-8.56,7.28-14.46,7.28-9.67,0-15.47-6-15.47-14.65,0-10.41,7.83-16,21.37-16h7.46v-3.6c0-7-3.41-9.57-10.13-9.57a43.65,43.65,0,0,0-13.08,2.57l-2.12-6.17A47.53,47.53,0,0,1,71.57,267c11.7,0,17,6,17,16.11v22.2C88.61,309.59,90.18,311,92.66,311.89Zm-12.52-8V292.73H73.78c-8.93,0-13.44,3.32-13.44,9.95,0,5.71,2.85,8.75,8.38,8.75C73.69,311.43,77.38,308.94,80.14,303.88Z"/><path class="fad6f61a-edcf-43be-b7b2-47387a6c3b83" d="M184.63,314.47a18.54,18.54,0,0,1-10.87,3.32c-8.2,0-13.08-4.79-13.08-13.82V274.68h-8.47v-6.54h8.47v-11l8.47-1v12h11.51l-.92,6.54H169.15V303.6c0,4.88,1.57,7.19,5.8,7.19a11.89,11.89,0,0,0,6.45-2.12Z"/><path class="fad6f61a-edcf-43be-b7b2-47387a6c3b83" d="M219.25,267.59l-1.56,8.29a15.22,15.22,0,0,0-4.24-.55c-6.08,0-9.58,4.32-11.61,13.63v27.72h-8.47V268.14h7.28l.83,9.86c2.58-7.28,7.09-11,13-11A20.52,20.52,0,0,1,219.25,267.59Z"/><path class="fad6f61a-edcf-43be-b7b2-47387a6c3b83" d="M264.47,295.31H233.53c.82,11.24,6.07,15.57,13.07,15.57,4.79,0,8.39-1.29,12.62-4.24l3.69,5.07a26.51,26.51,0,0,1-17,6.08c-13.54,0-21.46-9.49-21.46-24.87,0-15.11,7.64-25.88,20.17-25.88,13.08,0,20,9.12,20,23.94C264.66,292.64,264.56,294.21,264.47,295.31Zm-8.19-6.81c0-9.49-3.78-14.74-11.43-14.74-6.44,0-10.68,4.51-11.32,15.29h22.75Z"/><path class="fad6f61a-edcf-43be-b7b2-47387a6c3b83" d="M315.12,295.31H284.18c.83,11.24,6.08,15.57,13.08,15.57,4.78,0,8.38-1.29,12.61-4.24l3.69,5.07a26.51,26.51,0,0,1-16.95,6.08c-13.54,0-21.46-9.49-21.46-24.87,0-15.11,7.65-25.88,20.17-25.88,13.08,0,20,9.12,20,23.94C315.31,292.64,315.22,294.21,315.12,295.31Zm-8.19-6.81c0-9.49-3.78-14.74-11.42-14.74-6.45,0-10.69,4.51-11.33,15.29h22.75Z"/><path class="fad6f61a-edcf-43be-b7b2-47387a6c3b83" d="M151.34,323.35c-7.41.45-18.66-.38-70.62,1.09C44.89,325.46,0,328.19,0,328.19s53.12.05,153.17,0c79.49,0,170.4,0,161.53,0,0,0-5.27-.78-82.13-3.39-56.25-1.91-76.57-1.45-76.57-1.45Z"/></g><g id="e17e3e9f-8bf2-40d0-bc30-7f4b918f3322" data-name="Isolation Mode"><path class="fad6f61a-edcf-43be-b7b2-47387a6c3b83" d="M91.26,238.2l4-2.43s11.15,10.69,16.9,20.71,9.43,25.07,9.43,25.07,13-17.69,19.4-23.49c1.68.88,3.81,1.82,4.29,2,0,0-15.69,19.19-18.67,32.06S120.43,324,120.43,324h-10.3s5.6-35.09.59-53.08S91.26,238.2,91.26,238.2Z"/><path class="acf767ce-12e4-495f-abb6-4a043d942381" d="M177.51,235.48s-3.19,9.1-16.16,13.88c-8.43,3-20.26,0-20.26,0s-1.14-8.87,11.38-13.88C165.22,230.47,177.51,235.48,177.51,235.48Z"/><path class="acf767ce-12e4-495f-abb6-4a043d942381" d="M204.83,210.78s0,8.25-17.73,17.69c-17.11,9.44-26.25,0-26.25,0s-4.13-11.21,18.28-17.69C200.37,207.24,204.83,210.78,204.83,210.78Z"/><path class="fb4e30bf-a11f-4ef2-8bde-c44a788f32b9" d="M243.71,178.34s-5,11.21-23.32,23.89c-16.78,7-26.24,0-26.24,0s3-13.27,21.26-20.35C243.71,176.28,243.71,178.34,243.71,178.34Z"/><path class="a603fc39-1bb8-4b1b-9d31-96fe32e76d84" d="M250.79,147s2.47,3.86-7.08,19.82c-19.46,16.22-26.24,6.93-26.24,6.93s-2.37-13.71,12.09-21.67A33.08,33.08,0,0,1,250.79,147Z"/><path class="a603fc39-1bb8-4b1b-9d31-96fe32e76d84" d="M220.12,141.7S220,147,213.34,166c-6.16,18.54-17.6,18.59-17.6,18.59s-8.64-8.12,1.43-25.41C212.46,141.7,220.12,141.7,220.12,141.7Z"/><path class="a603fc39-1bb8-4b1b-9d31-96fe32e76d84" d="M234.2,97.55s-2,16.8-13.07,31.24c-11.62,16.1-22.24,15.05-22.24,15.05s-4.18-13.57,7.32-29.78C210.39,106.39,234.2,97.55,234.2,97.55Z"/><path class="a603fc39-1bb8-4b1b-9d31-96fe32e76d84" d="M184.15,106.67s10.06,15.24,8.14,33.33c-1.52,19.81-15.48,24.58-15.48,24.58s-10.75-6.81-9.39-26.64C167.3,124.08,184.15,106.67,184.15,106.67Z"/><path class="acf767ce-12e4-495f-abb6-4a043d942381" d="M181.49,171.26s9.51,4.13,9.28,17.65c-1.52,19.81-15.47,24.58-15.47,24.58s-6.6,7.94-5.24-11.9c-.19-5.26,3.18-8.43,5.83-13.22C179.42,182,181.49,171.26,181.49,171.26Z"/><path class="a603fc39-1bb8-4b1b-9d31-96fe32e76d84" d="M161.69,154.36s11,8.76,8.18,29c-6.45,24.5-16.21,20.72-16.21,20.72a40.37,40.37,0,0,1-3.72-29.27A90.72,90.72,0,0,1,161.69,154.36Z"/><path class="a603fc39-1bb8-4b1b-9d31-96fe32e76d84" d="M132.93,181.72s18.6,18.35,18.77,27.1c1.87,24-9.87,27.22-9.87,27.22s-13.11-11.86-14.72-29.13C127.75,194.33,132.93,181.72,132.93,181.72Z"/><path class="a603fc39-1bb8-4b1b-9d31-96fe32e76d84" d="M111.76,200.25a58.94,58.94,0,0,0,6.24,8.63c4.77,5.76,6.66,9.9,6.58,20.18.15,9.8-6.58,18.38-6.58,18.38s-14.06-9.83-15.33-23.59C103.31,211.26,111.76,200.25,111.76,200.25Z"/><path class="a603fc39-1bb8-4b1b-9d31-96fe32e76d84" d="M3.13,195.15s18-7.37,32.69-2c14.45,7.09,17.4,21.9,17.4,21.9s-19.17,11.35-32.14,2.79C4.86,205.33,3.13,195.15,3.13,195.15Z"/><path class="a603fc39-1bb8-4b1b-9d31-96fe32e76d84" d="M33.46,99.31s15.23,16.86,22.12,31a62.28,62.28,0,0,1,3,29.2s-22.53-7-25.95-22.12A118,118,0,0,1,33.46,99.31Z"/><path class="a603fc39-1bb8-4b1b-9d31-96fe32e76d84" d="M221.6,66.4s.25,22-8.55,32.91c-11.63,16.1-18.9,14.7-18.9,14.7s-6.17-12.34,5.33-28.56C203.67,77.78,221.6,66.4,221.6,66.4Z"/><path class="acf767ce-12e4-495f-abb6-4a043d942381" d="M193.61,39.37s2.92,38.41-8,50.85c-10.32,9.09-13.42,7.09-13.42,7.09s-11.64-14.69-.14-30.91C176.24,58.74,193.61,39.37,193.61,39.37Z"/><path class="a603fc39-1bb8-4b1b-9d31-96fe32e76d84" d="M164.67,34.44s9.16,34,0,44.82l-10.32,9.09s-17.68-11.16-5.61-31.5C155.37,46.74,164.67,34.44,164.67,34.44Z"/><path class="b6e8f5d3-06c8-4e8a-a8f8-d4f039a4c3c2" d="M142.46,13.34c-1.4,10.78,12.79,19.33,2.27,38.79-9.53,14.27-10.32,12.09-10.32,12.09s-14.91-15.3-2.84-35.65C138.2,18.47,142.66,11.81,142.46,13.34Z"/><path class="a603fc39-1bb8-4b1b-9d31-96fe32e76d84" d="M87.72,236.14c1.18-15.1,8.55-7.38,15-27.26,1.86-6.95-3.4-20.52-3.4-20.52s-25.45,8-20.1,35.49C80.64,231.42,87.59,237.87,87.72,236.14Z"/><path class="a2a57053-cb4d-486a-a9e4-15cfbe26c195" d="M59.38,256.52c10.57-4.07,14.42,4.94,29.91,2.84,5.29-1,10.36-10.9,10.36-10.9s-15.77-14.24-30.22-4.25C64.69,247.49,58.17,257,59.38,256.52Z"/><path class="a2a57053-cb4d-486a-a9e4-15cfbe26c195" d="M112.2.15c1.42,11.58-14.61,15.46-18.1,36.06C92.73,47.71,98,55.07,98,55.07S127.11,46.53,121,20C119.32,12.47,112-1.58,112.2.15Z"/><path class="a603fc39-1bb8-4b1b-9d31-96fe32e76d84" d="M158.94,131.83a119.61,119.61,0,0,1,6.54-23.25c3.77-10.16,7.76-9.27,7.76-9.27s2.54,4.56-1.18,14.73C169.75,121.1,158.94,131.83,158.94,131.83Z"/><path class="a603fc39-1bb8-4b1b-9d31-96fe32e76d84" d="M1.25,131.83S13.41,133.52,27,152.1c13,16.8,8.67,32.44,8.67,32.44s-23.83.76-30.5-13.28C-1.33,148.26,1.25,131.83,1.25,131.83Z"/><path class="fb4e30bf-a11f-4ef2-8bde-c44a788f32b9" d="M39.05,157.58C48.94,169,40.49,179.43,50.12,198c3.63,6.22,19,8.16,19,8.16s11.1-26.16-8-39.83C54.87,161.8,37.92,156.26,39.05,157.58Z"/><path class="b6e8f5d3-06c8-4e8a-a8f8-d4f039a4c3c2" d="M109.84,143.85c-4.57-14.43,11.07-11.33,9.54-32.15-.7-14.15-7.77-27.43-7.77-27.43S88.26,108,98,129.39C102.67,139.71,110.36,145.51,109.84,143.85Z"/><path class="fb4e30bf-a11f-4ef2-8bde-c44a788f32b9" d="M155.25,92.23s1.2,22.79-8,33.62c-10.32,9.09-17.4,6-17.4,6s-2.78-12.47,5.31-23.38C141.82,98.34,155.25,92.23,155.25,92.23Z"/><path class="fb4e30bf-a11f-4ef2-8bde-c44a788f32b9" d="M119.49,57.73s18.66,10.7,21.57,32.49c0,13.75-5.86,18.23-5.86,18.23s-10.62-2.36-15.71-20.1C116.29,76.69,119.49,57.73,119.49,57.73Z"/><path class="a2a57053-cb4d-486a-a9e4-15cfbe26c195" d="M121.88,131.19s15.37,21.35,8.21,42.14c-6.17,12.29-8.21,13.27-8.21,13.27s-12.63-8.63-10.86-25A63,63,0,0,1,121.88,131.19Z"/><path class="acf767ce-12e4-495f-abb6-4a043d942381" d="M90.75,135.63c-5.39,18.73-14.82,14.4-14.82,35.63,0,6.2,15.33,18.58,15.33,18.58a198.73,198.73,0,0,0,8.26-28.22C102.67,146.2,91.23,134,90.75,135.63Z"/><path class="a2a57053-cb4d-486a-a9e4-15cfbe26c195" d="M72.35,30.31s13.9,5.9,17.14,27.42c1.77,13.57-5.6,25.36-8.55,36.18,0,0-10.91-5.56-13.34-20.84A78.23,78.23,0,0,1,72.35,30.31Z"/><path class="acf767ce-12e4-495f-abb6-4a043d942381" d="M50,62.11S65.09,75.3,70,90.22c3.35,15.74-5.54,19.71-5.54,19.71s-17.63-.53-18.93-16C45.33,73.42,50,62.11,50,62.11Z"/><path class="a2a57053-cb4d-486a-a9e4-15cfbe26c195" d="M105.71,56.55s7.06,9.18,3.54,24.48C104,96.24,93.88,99.31,93.88,99.31s-11-13.49-4.12-27.42C99.52,55.37,105.71,56.55,105.71,56.55Z"/><path class="acf767ce-12e4-495f-abb6-4a043d942381" d="M66.53,109.3a35.3,35.3,0,0,1,14.7,23c1.77,22-10.51,23.88-10.51,23.88s-10.67-11.33-9.54-26.83C63.25,114,66.53,109.3,66.53,109.3Z"/><path class="a2a57053-cb4d-486a-a9e4-15cfbe26c195" d="M39.71,242.48c12.62-1.66,13.49,4.17,29.46,2,5.46-1,7-9.85,7-9.85s-7.83-10-22.58-3.18C46.85,234.59,38.38,242.65,39.71,242.48Z"/><path class="a603fc39-1bb8-4b1b-9d31-96fe32e76d84" d="M151.9,129.39s8.65,5.31,3.4,28c-1.53,5.28-14.24,13.88-14.24,13.88S129.5,155.07,137,140.41A18.36,18.36,0,0,1,151.9,129.39Z"/><path class="a2a57053-cb4d-486a-a9e4-15cfbe26c195" d="M83,91.7a.2.2,0,0,1,.39,0c.32,3.24,3.06,10,4,13.89,1.16,4.65,3.3,23.37,3.3,23.37-.5,1.33-10.38-9.59-10.7-22.3C79.83,100.31,82.46,95,83,91.7Z"/><path class="a603fc39-1bb8-4b1b-9d31-96fe32e76d84" d="M125.62,266.58s-3.48-11.83-1-23.24c2.21-11.12,7.41-11.92,7.41-11.92s5.51,12,0,24.41Z"/><path class="a2a57053-cb4d-486a-a9e4-15cfbe26c195" d="M123.71,206.12s-4.42-1.72-7.11-8.49a5.76,5.76,0,0,1-.4-1.46c-.89-6.7,5.22-11.54,5.22-11.54s1.39,7,2.28,10.1a2.9,2.9,0,0,1,0,.83Z"/><path class="a603fc39-1bb8-4b1b-9d31-96fe32e76d84" d="M72.06,223.8s-4.56,1.32-10.8-2.43a6,6,0,0,1-1.21-.92c-4.76-4.78-2.84-12.34-2.84-12.34s5.36,4.74,7.94,6.65c.22.16.31.46.47.68Z"/><path class="a603fc39-1bb8-4b1b-9d31-96fe32e76d84" d="M154.62,226.07a.19.19,0,0,1-.32-.21c1.41-2.94,2.57-10.12,3.77-14,1.43-4.57,6.6-18.73,6.6-18.73,1.11-.88,1.84,11.72-1.46,19.23C160.1,217.94,156.83,223.54,154.62,226.07Z"/></g></svg>